# CHK Pirate Warrior - original anchor
mtllib CHK_Original.mtl
s off
o Shank
usemtl M_Metal_Iron
v -0.1400 -0.1700 0.0000
v 0.1400 -0.1700 0.0000
v 0.1400 0.1700 0.0000
v -0.1400 0.1700 0.0000
v -0.1400 -0.1700 3.2000
v 0.1400 -0.1700 3.2000
v 0.1400 0.1700 3.2000
v -0.1400 0.1700 3.2000
f 1 2 3 4
f 5 8 7 6
f 1 5 6 2
f 2 6 7 3
f 3 7 8 4
f 5 1 4 8
o Stock
usemtl M_Metal_Iron
v -1.4000 -0.1250 2.4250
v 1.4000 -0.1250 2.4250
v 1.4000 0.1250 2.4250
v -1.4000 0.1250 2.4250
v -1.4000 -0.1250 2.6750
v 1.4000 -0.1250 2.6750
v 1.4000 0.1250 2.6750
v -1.4000 0.1250 2.6750
f 9 10 11 12
f 13 16 15 14
f 9 13 14 10
f 10 14 15 11
f 11 15 16 12
f 13 9 12 16
o ArmLeft
usemtl M_Metal_Iron
v -1.4950 -0.1700 0.3600
v 0.0550 -0.1700 0.3600
v 0.0550 0.1700 0.3600
v -1.4950 0.1700 0.3600
v -1.4950 -0.1700 0.6000
v 0.0550 -0.1700 0.6000
v 0.0550 0.1700 0.6000
v -1.4950 0.1700 0.6000
f 17 18 19 20
f 21 24 23 22
f 17 21 22 18
f 18 22 23 19
f 19 23 24 20
f 21 17 20 24
o ArmRight
usemtl M_Metal_Iron
v -0.0550 -0.1700 0.3600
v 1.4950 -0.1700 0.3600
v 1.4950 0.1700 0.3600
v -0.0550 0.1700 0.3600
v -0.0550 -0.1700 0.6000
v 1.4950 -0.1700 0.6000
v 1.4950 0.1700 0.6000
v -0.0550 0.1700 0.6000
f 25 26 27 28
f 29 32 31 30
f 25 29 30 26
f 26 30 31 27
f 27 31 32 28
f 29 25 28 32
o FlukeLeft
usemtl M_Metal_Iron
v -1.5500 -0.1800 0.3500
v -0.6800 -0.1800 0.3500
v -1.4200 -0.1800 1.0500
v -1.5500 0.1800 0.3500
v -0.6800 0.1800 0.3500
v -1.4200 0.1800 1.0500
f 33 34 35
f 36 38 37
f 33 36 37 34
f 34 37 38 35
f 35 38 36 33
o FlukeRight
usemtl M_Metal_Iron
v 1.5500 -0.1800 0.3500
v 0.6800 -0.1800 0.3500
v 1.4200 -0.1800 1.0500
v 1.5500 0.1800 0.3500
v 0.6800 0.1800 0.3500
v 1.4200 0.1800 1.0500
f 39 40 41
f 42 44 43
f 39 42 43 40
f 40 43 44 41
f 41 44 42 39
