# CHK Pirate Warrior - original coastal rock
mtllib CHK_Original.mtl
s 1
o RockA
usemtl M_Stone
v -1.2000 -0.9000 0.0000
v 1.0500 -0.8200 0.0800
v 1.3200 0.5200 0.0200
v 0.4200 1.1600 0.1000
v -0.9800 0.9800 0.0500
v -1.3800 0.1200 0.0200
v -0.7200 -0.5600 1.0500
v 0.4800 -0.7200 1.2600
v 0.9400 0.2200 1.0200
v 0.1600 0.8200 1.4800
v -0.8400 0.6200 1.1200
v -0.1800 0.0200 1.8600
f 1 2 7
f 2 8 7
f 2 3 8
f 3 9 8
f 3 4 9
f 4 10 9
f 4 5 10
f 5 11 10
f 5 6 11
f 6 7 11
f 6 1 7
f 7 8 12
f 8 9 12
f 9 10 12
f 10 11 12
f 11 7 12
f 1 6 5
f 1 5 4
f 1 4 3
f 1 3 2
